<svg width="24" height="24" viewBox="0 0 24 24" fill="none" xmlns="http://www.w3.org/2000/svg">
<path d="M19.6212 7.24316C19.0486 7.49643 18.4414 7.66277 17.8197 7.73666C18.475 7.34474 18.9655 6.72792 19.1997 6.00116C18.5847 6.36716 17.9105 6.62366 17.2077 6.76241C16.7357 6.25735 16.11 5.92238 15.4279 5.8096C14.7459 5.69682 14.0457 5.81253 13.4362 6.13875C12.8267 6.46497 12.342 6.98342 12.0575 7.61351C11.7731 8.24359 11.7048 8.95 11.8632 9.62291C10.616 9.5604 9.39598 9.2363 8.28219 8.67166C7.16841 8.10702 6.18582 7.31445 5.39823 6.34541C5.11945 6.82425 4.97295 7.36858 4.97373 7.92266C4.97373 9.01016 5.52723 9.97091 6.36873 10.5334C5.87074 10.5177 5.3837 10.3832 4.94823 10.1411V10.1801C4.94838 10.9044 5.19901 11.6063 5.65761 12.1669C6.11622 12.7275 6.75459 13.1122 7.46448 13.2559C7.00219 13.3811 6.51746 13.3996 6.04698 13.3099C6.24713 13.9333 6.63723 14.4785 7.16267 14.8692C7.68811 15.2599 8.32258 15.4765 8.97723 15.4886C8.32659 15.9996 7.58161 16.3774 6.78489 16.6003C5.98817 16.8231 5.15532 16.8868 4.33398 16.7876C5.76775 17.7097 7.4368 18.1992 9.14148 18.1976C14.9112 18.1976 18.0665 13.4179 18.0665 9.27266C18.0665 9.13766 18.0627 9.00116 18.0567 8.86766C18.6709 8.42379 19.2009 7.87393 19.622 7.24391L19.6212 7.24316Z" fill="#161513"/>
</svg>
